<?xml version="1.0" encoding="utf-8"?>
<!-- Generator: Adobe Illustrator 16.0.0, SVG Export Plug-In . SVG Version: 6.00 Build 0)  -->
<!DOCTYPE svg PUBLIC "-//W3C//DTD SVG 1.1//EN" "http://www.w3.org/Graphics/SVG/1.1/DTD/svg11.dtd">
<svg version="1.1" id="Layer_1" xmlns="http://www.w3.org/2000/svg" xmlns:xlink="http://www.w3.org/1999/xlink" x="0px" y="0px"
	 width="100px" height="100px" viewBox="0 0 100 100" enable-background="new 0 0 100 100" xml:space="preserve">
<g>
	<g>
		<path fill="#FFFFFF" d="M90.002,57.938c0,0.598,0,1.188,0,1.774c-0.602,6.076-4.121,11.333-9.17,11.333
			c-7.257,0-12.711,0-28.949,0c0-10.311-0.018-26.475-0.018-40.283c1.847-1.565,4.461-2.362,7.238-2.362
			c9.506,0,16.127,8.424,17.221,19.3C83.805,44.676,89.264,50.474,90.002,57.938z"/>
	</g>
	<g>
		<g>
			<path fill="#FFFFFF" d="M10.002,65.152v-9.279c0-0.496,0.33-0.896,0.735-0.896l0,0c0.406,0,0.732,0.4,0.732,0.896l0,0v9.279
				c0,0.496-0.327,0.898-0.732,0.898l0,0C10.332,66.052,10.002,65.648,10.002,65.152L10.002,65.152z"/>
		</g>
		<g>
			<path fill="#FFFFFF" d="M13.147,67.95V52.198c0-0.495,0.327-0.9,0.735-0.9l0,0c0.402,0,0.734,0.405,0.734,0.9l0,0V67.95
				c0,0.495-0.333,0.897-0.734,0.897l0,0C13.474,68.85,13.147,68.445,13.147,67.95L13.147,67.95z"/>
		</g>
		<g>
			<path fill="#FFFFFF" d="M16.148,70.579V50.098c0-0.496,0.33-0.896,0.734-0.896l0,0c0.405,0,0.732,0.4,0.732,0.896l0,0v20.481
				c0,0.495-0.327,0.896-0.732,0.896l0,0C16.478,71.475,16.148,71.074,16.148,70.579L16.148,70.579z"/>
		</g>
		<g>
			<path fill="#FFFFFF" d="M19.296,70.579V49.574c0-0.496,0.33-0.9,0.732-0.9l0,0c0.408,0,0.736,0.404,0.736,0.9l0,0v21.005
				c0,0.495-0.328,0.896-0.736,0.896l0,0C19.625,71.475,19.296,71.074,19.296,70.579L19.296,70.579z"/>
		</g>
		<g>
			<path fill="#FFFFFF" d="M22.589,70.579v-20.13c0-0.5,0.327-0.9,0.735-0.9l0,0c0.404,0,0.734,0.4,0.734,0.9l0,0v20.13
				c0,0.495-0.33,0.896-0.734,0.896l0,0C22.916,71.475,22.589,71.074,22.589,70.579L22.589,70.579z"/>
		</g>
		<g>
			<path fill="#FFFFFF" d="M25.734,70.579V44.672c0-0.497,0.329-0.9,0.733-0.9l0,0c0.407,0,0.734,0.403,0.734,0.9l0,0v25.907
				c0,0.495-0.327,0.896-0.734,0.896l0,0C26.063,71.475,25.734,71.074,25.734,70.579L25.734,70.579z"/>
		</g>
		<g>
			<path fill="#FFFFFF" d="M29.027,70.579V40.65c0-0.5,0.327-0.9,0.734-0.9l0,0c0.405,0,0.732,0.4,0.732,0.9l0,0v29.929
				c0,0.495-0.327,0.896-0.732,0.896l0,0C29.354,71.475,29.027,71.074,29.027,70.579L29.027,70.579z"/>
		</g>
		<g>
			<path fill="#FFFFFF" d="M32.175,70.579V38.723c0-0.5,0.327-0.896,0.731-0.896l0,0c0.405,0,0.735,0.396,0.735,0.896l0,0v31.856
				c0,0.495-0.33,0.896-0.735,0.896l0,0C32.502,71.475,32.175,71.074,32.175,70.579L32.175,70.579z"/>
		</g>
		<g>
			<path fill="#FFFFFF" d="M35.323,70.579v-32.73c0-0.496,0.327-0.9,0.735-0.9l0,0c0.405,0,0.731,0.404,0.731,0.9l0,0v32.73
				c0,0.495-0.327,0.896-0.731,0.896l0,0C35.65,71.475,35.323,71.074,35.323,70.579L35.323,70.579z"/>
		</g>
		<g>
			<path fill="#FFFFFF" d="M38.61,70.577V38.546c0-0.499,0.327-0.9,0.735-0.9l0,0c0.405,0,0.732,0.401,0.732,0.9l0,0v32.031
				c0,0.491-0.327,0.899-0.732,0.899l0,0C38.937,71.479,38.61,71.068,38.61,70.577L38.61,70.577z"/>
		</g>
		<g>
			<path fill="#FFFFFF" d="M42.045,70.402V39.421c0-0.5,0.327-0.899,0.735-0.899l0,0c0.405,0,0.734,0.399,0.734,0.899l0,0v30.981
				c0,0.494-0.329,0.897-0.734,0.897l0,0C42.372,71.301,42.045,70.896,42.045,70.402L42.045,70.402z"/>
		</g>
		<g>
			<path fill="#FFFFFF" d="M45.335,70.4V35.22c0-0.495,0.327-0.899,0.732-0.899l0,0c0.408,0,0.735,0.404,0.735,0.899l0,0V70.4
				c0,0.496-0.327,0.897-0.735,0.897l0,0C45.662,71.299,45.335,70.896,45.335,70.4L45.335,70.4z"/>
		</g>
		<g>
			<path fill="#FFFFFF" d="M48.77,70.229V32.77c0-0.495,0.327-0.899,0.735-0.899l0,0c0.405,0,0.735,0.404,0.735,0.899l0,0v37.46
				c0,0.492-0.33,0.896-0.735,0.896l0,0C49.097,71.125,48.77,70.723,48.77,70.229L48.77,70.229z"/>
		</g>
	</g>
</g>
</svg>
